<svg xmlns="http://www.w3.org/2000/svg" version="1.0" viewBox="154.37 82.55 224 258.82">
  <defs>
    <clipPath id="a">
      <path d="M198 183.73h132v126.688H198Zm0 0"/>
    </clipPath>
    <clipPath id="b">
      <path d="M254 82h125v65H254Zm0 0"/>
    </clipPath>
    <clipPath id="c">
      <path d="m240.738 113.594 17.051-37.535 120.805 54.879-17.055 37.535Zm0 0"/>
    </clipPath>
    <clipPath id="d">
      <path d="m240.738 113.594 17.051-37.535 120.805 54.879-17.055 37.535Zm0 0"/>
    </clipPath>
    <clipPath id="e">
      <path d="M154 97h109v62H154Zm0 0"/>
    </clipPath>
    <clipPath id="f">
      <path d="m259.395 92.055 16.687 32.722-104.844 53.465-16.687-32.722Zm0 0"/>
    </clipPath>
    <clipPath id="g">
      <path d="m276.21 125.027-16.687-32.722-104.847 53.465 16.687 32.722Zm0 0"/>
    </clipPath>
  </defs>
  <path fill="#fff" fill-opacity=".4" d="M304.412 136.78c-1.035-.218-2.332-.495-3.367-.718-.613-.941-1.652-1.164-2.484-1.07-1.57 1.023-2.989 1.941-4.247 2.758-.847 1.445-1.484 2.527-2.335 3.972l-1.27 5.965c.148.574.457 1.043.242 1.406-.117 1.196-.652 2.434-.457 3.426.297 1.149-.441 2.074-.09 2.961.559 1.203-.496 2.336-.144 3.223.715 1.101-.18 2.129.07 2.86.297 1.148-.027 2.026-.09 2.964.04 1.09.39 1.98.07 2.86-.48.98.391 1.98.169 3.015-.32.883.132 1.926-.188 2.809-.379 1.136.492 2.136-.043 3.378-.535 1.239.438 2.395.32 3.59-.23 1.711.012 3.121-.32 4.676-.226 1.711.793 3.285.305 4.942-.38 1.14.594 2.296-.043 3.378-.48.985.492 2.141.117 3.278.871 1-.496 2.336-.043 3.379.613.945-.129 1.87-.191 2.804.925.743-.286 1.973.746 2.871 0 0-.055.258-.215.36-.692 1.344.281 2.5.008 3.797.816 1.258-.239 2.386.004 3.793.296 1.148.539 2.554.207 4.113-.11.516.14 1.25.132 1.926-.007.676-.328 1.554-.18 2.129.509.785-.073 1.609.438 2.394.508.79-.804 1.863-.09 2.965.25.73-.332 1.555.282 2.496-.489 1.66-.403 3.168.199 4.79-.7 2.015.008 3.792-.02 5.82-.629.41-1.414.917-2.199 1.43a98.555 98.555 0 0 1-1.039-.223c-.73.253-1.312 1.078-2.09.91-.879-.32-1.406.242-1.879.55-.73.25-1.554-.332-2.082.235-.527.566-1.258.816-1.73 1.12-.52-.108-.778-.163-1.297-.276l-2.984 1.941c-.52-.11-.782-.168-1.04-.223-.886.356-1.628 1.282-2.718 1.32-.262-.054-.52-.113-.778-.167-1.418.918-2.988 1.941-4.402 2.86-.52-.114-.937-.067-1.297-.278-2.047 1.328-3.933 2.55-5.976 3.879-.258-.055-.52-.114-1.036-.223-2.675 1.734-5.605 3.414-8.437 5.25l-.52-.11-.406-.628c.219-1.035.7-2.02.293-2.649-.355-.886.07-1.61.133-2.547.066-.933-.547-1.875-.066-2.859.582-.824-.243-1.406-.235-2.082.164-.777.59-1.5.395-2.492-.25-.73.23-1.711.136-2.543-.148-.574-.558-1.203-.132-1.926.48-.984-.188-1.668-.125-2.602.175-1.453.765-2.953.316-4.675.797-1.188-.176-2.344.098-3.637.379-1.14.441-2.074.3-3.324-.14-1.25-.12-2.602-.003-3.797.277-1.297-.485-2.813.207-4.156.851-1.446-.329-2.914.367-4.258.32-.883-.551-1.88-.07-2.863.378-1.137.44-2.075.3-3.32-.453-1.048.239-2.391.457-3.427-.918-1.418.61-2.855.207-4.16-.445-1.718.246-3.062.477-4.777.055-.258.324-.879.117-1.191-.758-1.52.61-2.852.367-4.262-.605-1.617.09-2.961.418-4.516a108.588 108.588 0 0 1 1.934-9.074c.054-.262.008-.676-.04-1.094-1.398-.433-.445-1.722-.8-2.61-.305-.472-.711-1.1-1.324-2.042-1.04-.223-2.39-.238-3.067-.246-.77-.844-1.129-1.055-1.492-1.266l-3.773 2.45c-.22 1.035-1.016 2.222-1.754 3.148-.426.722-.59 1.5-1.274 2.168-.683.668.133 1.926-.035 2.703-.285 1.973.164 3.691-.222 5.508.668.683-.075 1.61.437 2.398.352.887-.805 1.86-.09 2.961.254.73-.332 1.555.281 2.5-.644 1.758.063 3.535.09 5.305-.172 1.453.172 3.015.102 4.629.082 1.507-.145 3.218.2 4.785-.056.258.148.574.093.832-.063.933-.7 2.02.07 2.86-.582.823.445 1.722.02 2.445-.22 1.035-.024 2.027-.09 2.96.039 1.094.496 2.141.219 3.434-.22 1.04.023 2.445.32 3.594.101.156-.11.52-.164.777-.278 1.297-.137 2.547.16 3.692.398 1.304-.813 2.539.164 3.695-.277 1.297.54 2.555-.152 3.898.289 1.82-.254 3.739.293 5.618.297 1.148-.442 2.074-.09 2.964.3 1.145.234 2.082.375 3.332.094.832-.488 1.657.07 2.86.25.73.39 1.98.067 2.86-.48.98.132 1.925.07 2.859-.063.937.39 1.98.066 2.863-.265.617-.015 1.351.078 2.183-7.074 4.59-14.308 9.286-21.382 13.875-.157.106-.055.262-.215.364-.055.257-.008.675-.063.933l-8.176 5.309c-.21.36-.164.777-.378 1.137l-4.247 2.757c-.535 1.239-1.218 1.907-1.28 2.84-.118 1.196-1.22 1.91-1.34 3.106-.22 1.035-.442 2.074-.66 3.11.769.843 1.01 2.25 2.3 3.202.832-.094 1.922-.133 2.758-.226l.508.785c1.039.222 2.074.441 3.113.664 1.414-.922 2.988-1.942 4.402-2.86.11-.519.063-.933.278-1.296 1.257-.817 2.515-1.633 3.613-2.348.113-.516.324-.879.433-1.398 1.258-.813 2.36-1.528 3.618-2.344.054-.262.007-.676.12-1.196a2952.94 2952.94 0 0 0 3.614-2.347c.27-.621.48-.98.535-1.242 1.418-.918 2.676-1.735 3.305-2.141a40.54 40.54 0 0 0 3.07-.43c.262.055 1.242.535 2.176.598 1.094-.04 2.242-.336 3.223.144.511.786.918 1.415 1.328 2.043.039 1.094-.184 2.13.168 3.02.558 1.203-.235 2.387-.04 3.379.454 1.043-.128 1.867.067 2.86-.062.933.133 1.925.488 2.812.297 1.148-.86 2.12-.043 3.379.352.89-.644 1.761-.347 2.91.351.887.547 1.875.484 2.812-.062.934-.86 2.121-.504 3.008.297 1.149-.5 2.336-.144 3.223.554 1.203.234 2.082-.09 2.96-.38 1.141.39 1.981.07 2.864-.535 1.238.176 2.34-.043 3.379-.223 1.035-.543 1.914-.664 3.11-.062.933.133 1.925.07 2.859-.222 1.039-.496 2.336-.875 3.472-.062.938-.285 1.973-.55 2.594.816 1.258 1.425 2.203 2.14 3.3 1.196.122 2.23.34 3.27.563.465.368.824.582 1.027.895.317-.203.629-.406 1.047-.453.164-.778.23-1.715.238-2.39.676.01 1.09-.036 1.711.23.48-.98 1.219-1.91 1.543-2.79.324-.878.645-1.757.55-2.593-.241-1.406-.483-2.813-.624-4.063-.508-.785-1.121-1.726-1.734-2.672.214-.363.168-.777.222-1.039-.254-.73-.761-1.515-.754-2.191-.086-1.508-.273-3.176-.46-4.84-.087-1.508-.532-3.23-.618-4.738-.187-1.668-.633-3.387-.3-4.945-1.079-1.313.605-2.852-.47-4.165.38-1.14-.437-2.398.255-3.742.265-.617-.504-1.46-.282-2.496.325-.883.285-1.972.032-2.703-.297-1.148.183-2.129.09-2.965-.141-1.25-.337-2.238.042-3.379.11-.515.22-1.035 1.11-1.39.777.168 2.074.445 3.054.922.985.48 1.856 1.48 2.79 1.543 1.195.12 1.964.96 3.101 1.34.984.48 1.438 1.523 2.524 2.16.878.324 2.175.601 2.519 2.164.418-.047.777.168 1.297.277.406.629.918 1.414 1.43 2.2.414-.048.777.167 1.293.276 1.125 1.731 2.246 3.461 3.265 5.032.52.11.883.324 1.14.379l5.817 8.96c-.054.262-.11.52-.222 1.04 1.125 1.73 2.246 3.457 3.367 5.187l-.274 1.297c.614.945 1.223 1.887 1.836 2.832-.691 1.34.653 2.035.688 3.125-.055.262-.11.52-.063.938.41.628.918 1.414 1.43 2.199-.637 1.086.336 2.242-.043 3.379 1.383 1.785.727 4.222 1.473 7.09 0 0 .511.785.918 1.414.77.843.964 1.832 1.789 2.414 1.297.277 2.593.554 4.047.726.472-.304.945-.613 1.414-.918.214-.36.168-.777.379-1.14.945-.61 1.886-1.223 2.988-1.938.34-2.23.781-4.305 1.379-6.48-.715-1.102-.075-2.188.043-3.38-.047-.417-.352-.89-.344-1.566-.234-2.082-.625-4.062-.602-6.09.063-.933-1.28-1.625-.746-2.867.059-.261-.61-.945-.758-1.52-.207-.312.008-.675.118-1.19-.407-.63-.918-1.419-1.43-2.204.113-.52.168-.777.277-1.297-.304-.472-.613-.941-.918-1.414.11-.52.22-1.039.278-1.297-1.016-2.246 0-4.472-.493-6.609.793-1.184-.437-2.394-.003-3.793-.973-1.156.707-2.695-.368-4.012.38-1.136-.336-2.238.043-3.379.48-.98-.496-2.136.145-3.218.637-1.086.234-2.39.039-3.38.062-.937-.39-1.98.09-2.964.324-.879-.551-1.879-.07-2.86.48-.98.757-2.277.042-3.378.536-1.243.395-2.493.254-3.739-.195-.992-.547-1.879-.066-2.863.11-.516.535-1.238.227-1.71-.454-1.048.128-1.872.09-2.966-.196-.988.077-2.285.042-3.379-.093-.832-.289-1.82.032-2.703.324-.879-.602-1.617-.122-2.597.157-.106-.308-.473-.613-.946.32-.879.856-2.12.82-3.215-.3-1.144-.078-2.183.141-3.218.277-1.297.5-2.336.617-3.532.934.067 1.61.075 2.344-.175 2.61-.801 3.18-.95 5.672-.555l3.617-2.348c-.094-.832.59-1.5.078-2.285-1.492-1.265-3.426-.46-5.293-.586-.629.407-1.418.918-2.203 1.43-1.082-.64-1.824.289-2.71.64-.723-.425-1.61-.07-2.325-1.171.11-.52.434-1.399.598-2.176.007-.676.277-1.297.023-2.027-.25-.73.23-1.715.293-2.649.176-1.453-.168-3.02.164-4.574-.613-.941.442-2.074.188-2.805-.657-1.36.238-2.39-.114-3.277-.402-1.305.024-2.027.086-2.961.168-.777.434-1.398-.074-2.188-.355-.886 1.016-2.222.04-3.378l.058-.258c.91-2.38.113-4.989.867-7.27.27-.617-.555-1.203-.234-2.082.425-.722.804-1.86.554-2.59-.355-.89.125-1.87-.07-2.863-.04-1.09-.336-2.238.144-3.223.48-.98.024-2.027.09-2.96.016-1.352 1.07-2.481.153-3.899.117-1.191.394-2.488.714-3.371-.25-.73-.296-1.145-.5-1.461.489-1.656.762-2.953 1.094-4.508-.101-.16-.304-.472-.406-.629.285-1.972.727-4.047 1.168-6.12l-.41-.63 1.27-5.965c-.048-.414-.25-.73-.352-.886.558-3.27 1.277-6.64 1.941-9.75-.047-.418-.254-.73-.355-.89.773-3.63 1.39-7.157 2.105-10.528-.187-1.664-.27-3.176-.515-4.582-.305-.473-.508-.785-.817-1.258Zm-59.586 139.227c-.262-.054-.418.047-.52-.113-.1-.156-.046-.414.008-.676.102.16.258.059.36.215.105.156.047.414.152.574Zm47.246-28.43c.344 1.567.532 3.231.461 4.845-.222 1.035.336 2.238-.144 3.218-.22 1.04.234 2.086.07 2.864-.332 1.554.066 2.859.05 4.21-.015 1.352.485 2.813.208 4.11-.219 1.039.34 2.238.375 3.332-.063.933-.442 2.074-.188 2.805.555 1.203-.34 2.23-.043 3.378.344 1.567.79 3.286.461 4.844-.332 1.555.168 3.016-.058 4.73-.278 1.294.328 2.915.254 4.524.101.16.308.473.41.63-.176 1.452-1.285 2.843-.367 4.26-.375 1.137.441 2.395.007 3.794-.324.879.235 2.082-.246 3.066-.16.102-.418.047-.418.047-1.12-1.73-2.246-3.46-3.367-5.191-.52-.11-.879-.32-1.297-.274-.613-.945-1.324-2.047-1.937-2.988-.52-.11-.778-.164-1.297-.277-.512-.786-.918-1.415-1.43-2.2-.36-.215-.777-.168-1.137-.379-.41-.628-.816-1.257-1.226-1.886-.98-.48-1.703-.907-2.473-1.746-.41-.63-1.343-.692-1.855-1.48-.406-.63-1.492-1.266-2.371-1.59-1.035-.22-1.492-1.266-2.582-1.227-.301-1.149-1.606-.746-2.375-1.59-.407-.629-1.813-.387-2.38-.91-.769-.844-1.917-.547-2.796-.867a89.978 89.978 0 0 0-.512-.79c-4.508-1.093-9.074-1.93-13.582-3.027-.344-1.562.504-3.008.465-4.101-.25-.73-.297-1.145-.5-1.461l3.773-2.45c.211-.359.266-.62.32-.878.16-.102.372-.465.528-.567 5.977-3.875 12.11-7.855 18.082-11.734.262.054.676.008.938.062.101.16.257.059.414-.047 2.832-1.836 5.82-3.773 8.648-5.609l1.297.273c1.102-.71 2.36-1.527 3.46-2.242.415-.047.935.063 1.352.016.575-.149 1.204-.559 1.934-.809.52.11.926.739 1.074 1.313Zm0 0"/>
  <path fill="#fff" d="M292.953 134.341c-1.035-.218-2.332-.496-3.367-.718-.613-.942-1.652-1.164-2.484-1.07-1.57 1.023-2.988 1.94-4.246 2.757-.848 1.445-1.485 2.527-2.336 3.973l-1.27 5.965c.149.574.457 1.043.242 1.406-.117 1.195-.652 2.433-.457 3.426.297 1.148-.441 2.074-.09 2.96.56 1.204-.495 2.337-.144 3.223.715 1.102-.18 2.13.07 2.86.297 1.148-.027 2.027-.09 2.964.04 1.09.391 1.98.07 2.86-.48.98.391 1.98.169 3.015-.32.883.133 1.926-.188 2.809-.379 1.137.493 2.137-.043 3.379-.535 1.238.438 2.394.32 3.59-.23 1.71.012 3.12-.32 4.676-.226 1.71.793 3.285.305 4.941-.379 1.14.594 2.297-.043 3.379-.48.984.492 2.14.117 3.277.871 1-.496 2.336-.043 3.38.614.944-.129 1.87-.191 2.804.926.742-.285 1.972.746 2.87 0 0-.055.259-.215.36-.691 1.344.281 2.5.008 3.797.816 1.258-.238 2.387.004 3.793.297 1.149.539 2.555.207 4.113-.11.516.14 1.25.133 1.926-.008.676-.328 1.555-.18 2.13.508.784-.074 1.608.438 2.394.507.789-.805 1.863-.09 2.964.25.73-.332 1.555.28 2.497-.487 1.66-.401 3.168.2 4.789-.7 2.015.008 3.793-.02 5.82-.628.41-1.413.918-2.199 1.43a98.555 98.555 0 0 1-1.039-.223c-.73.254-1.312 1.078-2.09.91-.878-.32-1.406.242-1.878.55-.73.25-1.555-.331-2.082.235-.528.567-1.258.817-1.73 1.121-.52-.109-.778-.164-1.298-.277l-2.984 1.941c-.52-.109-.781-.168-1.04-.222-.886.355-1.628 1.281-2.718 1.32-.262-.055-.52-.113-.777-.168-1.418.918-2.989 1.942-4.403 2.86-.52-.114-.937-.067-1.297-.278-2.046 1.328-3.933 2.55-5.976 3.88-.258-.056-.52-.114-1.035-.224-2.676 1.735-5.606 3.414-8.438 5.25l-.52-.109c-.1-.156-.304-.473-.406-.629.22-1.035.7-2.02.293-2.648-.355-.887.07-1.61.133-2.547.067-.934-.547-1.875-.066-2.86.582-.824-.242-1.406-.235-2.082.165-.777.59-1.5.395-2.492-.25-.73.23-1.71.137-2.543-.149-.574-.559-1.203-.133-1.926.48-.984-.188-1.667-.125-2.601.176-1.453.766-2.953.316-4.676.797-1.187-.175-2.344.098-3.637.379-1.14.441-2.074.3-3.324-.14-1.25-.12-2.601-.003-3.797.277-1.297-.485-2.812.207-4.156.851-1.445-.328-2.914.367-4.258.32-.883-.55-1.879-.07-2.863.379-1.137.441-2.074.3-3.32-.453-1.047.239-2.391.458-3.426-.918-1.418.609-2.856.207-4.16-.446-1.719.246-3.063.476-4.778.055-.257.324-.879.117-1.191-.757-1.52.61-2.852.368-4.262-.606-1.617.09-2.96.417-4.515a108.588 108.588 0 0 1 1.934-9.075c.055-.261.008-.675-.039-1.093-1.398-.434-.445-1.723-.8-2.61-.305-.472-.712-1.101-1.325-2.043-1.04-.222-2.39-.238-3.066-.246-.77-.844-1.13-1.054-1.493-1.265l-3.773 2.449c-.219 1.035-1.016 2.222-1.754 3.148-.426.723-.59 1.5-1.273 2.168-.684.668.132 1.926-.036 2.703-.285 1.973.165 3.692-.222 5.508.668.684-.074 1.61.437 2.399.352.886-.804 1.859-.09 2.96.254.731-.332 1.555.282 2.5-.645 1.758.062 3.536.09 5.305-.172 1.453.171 3.016.101 4.63.082 1.507-.144 3.218.2 4.784-.055.258.148.575.093.832-.062.934-.7 2.02.07 2.86-.582.824.446 1.722.02 2.445-.219 1.035-.023 2.027-.09 2.96.04 1.095.496 2.142.219 3.435-.219 1.039.023 2.445.32 3.593.102.157-.11.52-.164.778-.277 1.297-.137 2.547.16 3.691.399 1.305-.812 2.54.164 3.695-.277 1.297.54 2.555-.152 3.899.289 1.82-.254 3.738.293 5.617.297 1.148-.441 2.074-.09 2.965.3 1.144.234 2.082.375 3.332.094.832-.488 1.656.07 2.86.25.73.391 1.98.067 2.859-.48.98.133 1.925.07 2.859-.062.937.39 1.98.067 2.863-.266.617-.016 1.352.078 2.184l-21.383 13.875c-.156.105-.055.262-.215.363-.055.258-.008.676-.062.934l-8.176 5.308c-.211.36-.164.778-.38 1.137l-4.245 2.758c-.535 1.238-1.219 1.906-1.282 2.84-.117 1.195-1.218 1.91-1.34 3.105-.218 1.035-.44 2.074-.66 3.11.77.843 1.012 2.25 2.301 3.203.832-.094 1.922-.133 2.758-.227.203.313.305.469.508.785 1.039.223 2.074.442 3.113.664 1.414-.922 2.988-1.941 4.403-2.86.109-.519.062-.933.277-1.296 1.258-.816 2.515-1.633 3.613-2.348.113-.515.324-.878.434-1.398 1.258-.813 2.36-1.527 3.617-2.344.055-.261.008-.676.121-1.195a2952.94 2952.94 0 0 0 3.613-2.348c.27-.62.48-.98.535-1.242 1.418-.918 2.676-1.734 3.305-2.14a40.54 40.54 0 0 0 3.07-.43c.262.054 1.243.535 2.176.597 1.094-.039 2.242-.336 3.223.145.512.785.918 1.414 1.328 2.043.04 1.094-.184 2.129.168 3.02.559 1.203-.234 2.386-.04 3.378.454 1.043-.128 1.868.067 2.86-.062.933.133 1.926.489 2.812.296 1.149-.86 2.121-.043 3.38.351.89-.645 1.76-.348 2.91.352.886.547 1.874.484 2.812-.062.933-.859 2.12-.504 3.008.297 1.148-.5 2.336-.144 3.222.555 1.203.234 2.082-.09 2.961-.379 1.14.39 1.98.07 2.863-.535 1.239.176 2.34-.043 3.38-.222 1.035-.543 1.913-.664 3.109-.062.933.133 1.926.07 2.86-.222 1.038-.495 2.335-.874 3.472-.063.937-.285 1.972-.551 2.594.816 1.257 1.426 2.203 2.14 3.3 1.196.121 2.231.34 3.27.563.465.367.824.582 1.027.894.317-.203.63-.406 1.047-.453.164-.777.23-1.715.239-2.39.675.011 1.09-.036 1.71.23.48-.98 1.22-1.91 1.543-2.789.325-.879.645-1.758.551-2.594-.242-1.406-.484-2.812-.625-4.062-.508-.785-1.12-1.727-1.734-2.672.215-.363.168-.777.223-1.04-.254-.73-.762-1.515-.754-2.19-.086-1.508-.274-3.176-.461-4.84-.086-1.508-.532-3.23-.618-4.739-.187-1.668-.632-3.386-.3-4.945-1.078-1.313.605-2.852-.47-4.164.38-1.14-.437-2.399.255-3.742.265-.617-.504-1.461-.281-2.496.324-.883.285-1.973.03-2.703-.296-1.149.184-2.13.09-2.965-.14-1.25-.335-2.239.044-3.38.109-.515.218-1.034 1.109-1.39.777.168 2.074.445 3.055.922.984.48 1.855 1.48 2.789 1.543 1.195.121 1.965.96 3.101 1.34.985.48 1.438 1.523 2.524 2.16.879.324 2.176.602 2.52 2.164.417-.047.777.168 1.296.277.406.63.918 1.414 1.43 2.2.414-.047.777.168 1.293.277 1.125 1.73 2.246 3.46 3.265 5.031.52.11.883.324 1.141.38l5.817 8.96c-.055.262-.11.52-.223 1.04 1.125 1.73 2.246 3.456 3.367 5.187l-.273 1.296 1.836 2.833c-.692 1.34.652 2.035.687 3.125-.055.261-.11.519-.062.937l1.43 2.2c-.637 1.085.335 2.241-.044 3.378 1.383 1.785.727 4.223 1.473 7.09 0 0 .512.785.918 1.414.77.844.965 1.832 1.789 2.414 1.297.277 2.594.555 4.047.727.472-.305.945-.614 1.414-.918.215-.36.168-.778.379-1.14.945-.61 1.887-1.224 2.988-1.938.34-2.23.781-4.305 1.379-6.48-.715-1.102-.074-2.188.043-3.38-.047-.418-.352-.89-.344-1.566-.234-2.082-.625-4.063-.601-6.09.062-.934-1.282-1.625-.746-2.867.058-.262-.61-.946-.758-1.52-.207-.312.008-.676.117-1.191-.406-.63-.918-1.418-1.43-2.203.114-.52.168-.778.278-1.297-.305-.473-.614-.942-.918-1.414.109-.52.218-1.04.277-1.297-1.016-2.246 0-4.473-.492-6.61.793-1.183-.438-2.394-.004-3.792-.973-1.157.707-2.696-.367-4.012.379-1.137-.336-2.238.043-3.38.48-.98-.496-2.136.144-3.218.637-1.086.235-2.39.04-3.379.062-.937-.391-1.98.09-2.965.323-.878-.552-1.878-.071-2.859.48-.98.758-2.277.043-3.379.535-1.242.394-2.492.254-3.738-.196-.992-.547-1.88-.067-2.863.11-.516.535-1.239.227-1.711-.453-1.047.129-1.871.09-2.965-.196-.988.078-2.285.043-3.38-.094-.831-.29-1.82.03-2.702.325-.88-.6-1.617-.12-2.598.156-.105-.309-.473-.614-.945.32-.88.856-2.121.82-3.215-.3-1.145-.077-2.184.141-3.219.278-1.297.5-2.336.618-3.531.933.066 1.609.074 2.343-.176 2.61-.8 3.18-.95 5.672-.555l3.617-2.347c-.093-.832.59-1.5.079-2.285-1.493-1.266-3.426-.461-5.293-.586-.63.406-1.418.918-2.204 1.43-1.082-.641-1.824.288-2.71.64-.723-.426-1.61-.07-2.325-1.172.11-.52.434-1.398.598-2.176.008-.675.277-1.296.023-2.027-.25-.73.23-1.715.293-2.648.176-1.454-.168-3.02.164-4.575-.613-.941.442-2.074.188-2.804-.656-1.36.238-2.39-.113-3.278-.403-1.304.023-2.027.086-2.96.168-.778.433-1.399-.075-2.188-.355-.887 1.016-2.223.04-3.379l.058-.258c.91-2.379.113-4.988.867-7.27.27-.617-.554-1.202-.234-2.081.426-.723.805-1.86.555-2.59-.356-.89.125-1.871-.07-2.863-.04-1.09-.337-2.239.144-3.223.48-.98.023-2.027.09-2.961.015-1.352 1.07-2.48.152-3.899.117-1.19.394-2.488.715-3.37-.25-.731-.297-1.145-.5-1.462.488-1.656.761-2.953 1.094-4.507-.102-.16-.305-.473-.407-.63.285-1.972.727-4.046 1.168-6.12l-.41-.63 1.27-5.964c-.047-.414-.25-.73-.352-.887.559-3.27 1.277-6.64 1.941-9.75-.046-.418-.253-.73-.355-.89.773-3.63 1.39-7.157 2.105-10.528-.187-1.664-.27-3.176-.515-4.582-.305-.472-.508-.785-.817-1.258Zm-59.586 139.227c-.261-.055-.417.047-.52-.113-.1-.157-.046-.414.009-.676.101.16.258.058.36.215.105.156.046.414.151.574Zm47.247-28.43c.343 1.567.53 3.23.46 4.844-.222 1.035.336 2.238-.144 3.219-.219 1.039.234 2.086.07 2.863-.332 1.555.067 2.86.051 4.21-.016 1.353.484 2.813.207 4.11-.219 1.04.34 2.239.375 3.332-.062.934-.441 2.075-.187 2.805.554 1.203-.34 2.23-.043 3.379.343 1.566.789 3.285.46 4.844-.331 1.554.169 3.015-.058 4.73-.277 1.293.328 2.914.254 4.524.101.16.308.472.41.629-.176 1.453-1.285 2.843-.367 4.261-.375 1.137.441 2.395.008 3.793-.325.88.234 2.082-.246 3.067-.16.101-.418.046-.418.046-1.121-1.73-2.246-3.46-3.368-5.19-.52-.11-.878-.321-1.296-.274-.614-.946-1.325-2.047-1.938-2.989-.52-.109-.777-.164-1.297-.277-.512-.785-.918-1.414-1.43-2.2-.359-.214-.777-.167-1.136-.378l-1.227-1.887c-.98-.48-1.703-.906-2.472-1.746-.41-.629-1.344-.691-1.856-1.48-.406-.63-1.492-1.266-2.371-1.59-1.035-.219-1.492-1.266-2.582-1.227-.3-1.148-1.606-.746-2.375-1.59-.406-.629-1.813-.386-2.379-.91-.77-.844-1.918-.547-2.797-.867a89.978 89.978 0 0 0-.512-.79c-4.507-1.093-9.074-1.929-13.582-3.026-.343-1.563.504-3.008.465-4.102-.25-.73-.297-1.144-.5-1.46l3.774-2.45c.21-.36.265-.621.32-.879.16-.102.371-.465.527-.566 5.977-3.875 12.11-7.856 18.082-11.735.262.055.676.008.938.063.101.16.258.058.414-.047 2.832-1.836 5.82-3.774 8.648-5.61l1.297.274c1.102-.711 2.36-1.527 3.461-2.242.414-.047.934.062 1.352.015.574-.148 1.203-.558 1.933-.808.52.11.926.738 1.075 1.312Zm0 0"/>
  <g clip-path="url(#a)">
    <path fill="#fff" d="M223.14 202.129v.004a37.808 37.808 0 0 0-4.156 4.015 86.27 86.27 0 0 1 1.891-1.89c.574-.559 1.328-1.27 2.266-2.13m-6.13 1.188a52.972 52.972 0 0 0-2.718 2.606 39.066 39.066 0 0 0-2.117 2.387 81.736 81.736 0 0 1 4.836-4.993m106.093 29.7-.027.265-.004.274.016.273.035.274.066.28.094.29.121.293.16.297.196.308.23.317.278.324.316.336c-.422-1.05-.914-2.227-1.48-3.531m-59.29-49.243-.851.008c-17.79.77-33.094 7.27-45.914 19.504 13.465-11.808 28.574-17.883 45.336-18.23 8.73.058 16.164 1.379 22.304 3.953 9.188 3.68 16.528 8.097 22.028 13.265 4 3.75 6.98 7.079 8.941 9.989-4.926-6.934-12.37-12.922-22.336-17.965-10.836-4.98-21.414-7.469-31.734-7.469-13.957-.273-26.766 4.82-38.426 15.285 12.04-9.61 25.496-13.87 40.371-12.785 17.29 1.567 31.8 7.758 43.531 18.57 6.391 6.04 11.739 14.41 16.04 25.11.828-2.719 1.066-4.352.707-4.899 1.707 5.121 2.722 10.434 3.042 15.946 1.157 15.582-3.718 30.261-14.62 44.047 17.89-20.207 21.511-42.735 10.867-67.575-5.797-11.859-13.41-20.527-22.836-26.004-11.786-7.054-23.938-10.636-36.45-10.75m48.395 104.352-.45.484a110.087 110.087 0 0 1-4.363 4.45l1.051-.84.23-.196c.067-.043.333-.296.798-.753.386-.395.812-.86 1.273-1.387l.715-.836.746-.922m-93.25-81.953-1.106 1.164c-12.585 14.11-18.195 29.953-16.828 47.523-2.023-7.554-1.918-15.457.317-23.707 2.16-8.726 5.761-16.332 10.808-22.816-8.355 9.59-12.941 21.867-13.757 36.836-.024 2.703.425 6.086 1.351 10.148 3.262 11.575 5.168 17.715 5.723 18.426 3.597 8.188 7.828 14.543 12.699 19.074 6.223 5.82 13.074 10.192 20.555 13.11 7.55 3.132 14.707 4.636 21.464 4.515 9.665-.21 18.75-1.652 27.254-4.328 6.176-2.199 12.825-6.55 19.946-13.047-7.367 5.871-13.703 9.63-19.004 11.27-9.926 2.726-19.086 4.027-27.48 3.894-5.266.368-12.766-1.546-22.5-5.734-7.11-3.11-12.977-6.95-17.61-11.52-3.703-3.71-6.516-7.175-8.441-10.394 5.734 6.883 14.05 13.45 24.953 19.703 5.238 2.918 10.457 5.012 15.652 6.277 1.336.305 2.09.414 2.266.329.093-.028.086-.094-.028-.196.23.16.575.008 1.032-.449.386-.469.636-.93.757-1.383-6.882-.16-17.48-4.855-31.8-14.082-8.172-6.101-14.32-13.258-18.45-21.473-3.906-9.347-4.75-20.445-2.527-33.292 1.633-9.973 6.55-19.922 14.754-29.848"/>
  </g>
  <g clip-path="url(#b)">
    <g clip-path="url(#c)">
      <g clip-path="url(#d)">
        <path fill="#fff" d="M270.184 117.355c.093-.054-.157-.535.406.079.215.242.418.484.613.73l.29.363.292.356c.38.465.742.937 1.098 1.402.176.238.367.461.555.695.19.23.378.457.582.688.199.23.398.46.609.691.215.23.441.454.68.68.082.004.168.008.257.016l1.024 1.14c.34.383.71.754 1.07 1.137l.543.574c.184.192.375.38.563.567.379.375.757.754 1.14 1.136a78.915 78.915 0 0 0 9.434 7.168c-.05-.109-.063-.187.285.016.172.113.352.227.54.348.183.125.386.242.585.37.402.259.836.528 1.281.817l.34.223.348.21c.238.145.476.29.719.434.242.149.488.297.738.45l.375.222c.125.074.246.14.383.215.308.156.617.316.921.469.25.094.34.074.399.062.234.13.453.258.676.371.222.118.437.23.648.344l1.207.637a78.654 78.654 0 0 0 8.07 3.129c2.786.91 5.61 1.656 8.48 2.242a83.325 83.325 0 0 0 18.048 1.652c.66-.035 1.32-.074 1.976-.11.657-.046 1.309-.105 1.961-.155.649-.047 1.293-.118 1.938-.18.64-.063 1.273-.113 1.902-.195l1.445-.137c.247-.02.497-.047.747-.078l.765-.094.774-.086c.257-.027.52-.058.78-.094l1.575-.21c.527-.063 1.047-.153 1.57-.235l1.536-.246 1.468-.285c.485-.09.95-.18 1.39-.285-.167-.121.243-.356.919-.641l2.508-1.008c.226-.09.445-.176.66-.27l.61-.269c.386-.18.726-.344.98-.484.508-.281.68-.473.215-.496.289-.082.59-.184.898-.285.313-.098.633-.208.953-.313.32-.105.645-.203.953-.324.309-.117.61-.227.899-.332l.797-.309.343-.137.297-.136c.367-.168.59-.293.617-.352.13-.242.297-.453.504-.633.16-.148.328-.289.504-.418.2-.156.434-.328.707-.52.547-.382 1.27-.804 2.172-1.366l.723-.43c.254-.148.523-.297.797-.469.55-.336 1.168-.699 1.84-1.094.523-.308 1.124-.64 1.746-.976.316-.16.62-.348.93-.52l.902-.511.43-.243c.144-.082.277-.167.406-.242l.714-.441c.32-.191.63-.402.926-.625.266-.227.219-.246.012-.164-.207.082-.559.25-.914.426-.715.343-1.422.687-.903.257a79.98 79.98 0 0 1-24.601 9.903c-1.086.222-2.164.465-3.258.644l-.82.153-.41.07-.41.062-1.645.243c-.274.043-.55.074-.824.105l-.828.094-.825.098c-.277.03-.558.05-.828.074l-1.664.144-1.668.098c-.277.02-.554.039-.836.047l-.843.027-.836.024c-.278.004-.559.02-.836.015h-1.68l-.422-.004-.418-.011-.844-.028c-1.12-.02-2.242-.11-3.37-.172l-1.684-.156c-.282-.027-.567-.05-.844-.082l-.836-.101a42.203 42.203 0 0 1-1.55-.145c-.645-.07-1.407-.184-2.274-.3l-1.375-.235-.738-.125c-.254-.043-.508-.102-.774-.156-.523-.106-1.07-.22-1.637-.336-.566-.137-1.148-.278-1.75-.422a73.283 73.283 0 0 1-7.789-2.414 71.385 71.385 0 0 1-8.363-3.727 75.77 75.77 0 0 1-14.977-10.32 81.522 81.522 0 0 1-5.375-5.203c-.375-.399-.722-.79-1.058-1.16a34.657 34.657 0 0 1-.945-1.063l-.813-.965c-.254-.3-.492-.582-.7-.847-.202-.266-.41-.5-.616-.754a96.09 96.09 0 0 1-5.43-7.547c-1.7-2.633-3.207-5.246-4.41-7.422l-.84-1.5c-.145-.25-.277-.508-.41-.762-.133-.254-.27-.512-.403-.77l-.406-.769c-.137-.258-.258-.52-.387-.781-.253-.524-.515-1.043-.765-1.567l.437 1.497c.137.476.262.933.395 1.347l-.176-.406-.164-.41-.32-.809c-.211-.535-.426-1.035-.594-1.508-.168-.472-.344-.886-.492-1.246-.074-.18-.137-.34-.207-.488-.067-.144-.11-.27-.16-.375-.934-2.348-1.192-2.852-1.262-2.484-.02.351-.004.699.05 1.047.063.468.141 1.023.196 1.523.137.703-.012.621-.129.637-.117.015-.203.129.09 1.21l-.367-1.019-.285-.894-.29-.887-.164-.488c-.05-.172-.101-.356-.16-.551-.05-.031.008.254.137.672.125.418.328.976.508 1.511l.265.754c.082.23.149.434.2.59.093.309.097.426-.067.188l-.187-.559c-.059-.187-.13-.379-.192-.574a60.23 60.23 0 0 0-.406-1.172 35.278 35.278 0 0 1-.77-2.36c-.019.153.067.563.204 1.098l.101.418c.043.145.09.293.137.445l.297.934.277.899.246.75c.133.43.192.695.117.656-.085-.203-.21-.578-.355-1.031-.14-.454-.281-.993-.418-1.508-.074-.258-.148-.508-.219-.746l-.105-.34-.094-.309c-.117-.383-.234-.652-.324-.707-.04-.015.058.36.191.84.133.484.332 1.063.457 1.45-.843-2.36-1.418-4.22-1.722-4.915-.153-.344-.239-.398-.23-.082.015.254.042.508.085.758.055.355.129.812.258 1.371-.059-.191-.117-.39-.168-.602l-.156-.66-.332-1.398c-.059-.234-.106-.477-.157-.715l-.148-.707c-.098-.465-.203-.91-.305-1.32l-.008.011c.09.41.204.977.313 1.532l.164.808c.055.254.113.485.16.672-.058-.234-.12-.465-.176-.7l-.156-.702-.312-1.403c-.004.157-.004.332-.004.516.062.356.125.711.195 1.066.07.36.14.723.238 1.086-.039-.156-.078-.308-.113-.464l-.105-.47-.215-.94c.015.488.043 1.046.105 1.66.098.562.192 1.12.281 1.664.043.273.086.539.137.793l.145.757c.101.485.191.942.281 1.352.047.203.094.394.144.574.051.176.102.336.149.485a80.77 80.77 0 0 0 14.098 26.503Zm0 0"/>
      </g>
    </g>
  </g>
  <g clip-path="url(#e)">
    <g clip-path="url(#f)">
      <g clip-path="url(#g)">
        <path fill="#fff" d="M250.137 129.563c-.086-.043.12-.485-.356.085-.18.227-.355.45-.52.676l-.241.336-.243.328c-.324.43-.625.864-.922 1.293-.148.219-.308.426-.468.64-.16.216-.317.423-.489.638-.168.214-.335.425-.515.636-.18.215-.375.422-.578.633-.075.008-.149.016-.227.027-.285.348-.574.7-.863 1.055-.293.356-.606.7-.91 1.055-.153.18-.309.355-.461.535-.156.176-.317.352-.477.527-.324.348-.644.7-.969 1.055a70.3 70.3 0 0 1-8.113 6.762c.043-.098.047-.168-.254.027-.144.106-.3.215-.46.332-.165.113-.337.227-.512.352-.348.246-.72.5-1.106.777l-.293.211-.305.203-.62.418c-.212.14-.423.281-.637.426-.11.07-.215.144-.325.215-.109.07-.214.136-.332.207l-.804.453c-.219.094-.301.082-.348.07-.203.125-.394.25-.59.36-.191.113-.379.222-.562.332-.367.214-.719.421-1.051.617a69.592 69.592 0 0 1-7.059 3.11 68.137 68.137 0 0 1-7.457 2.335 74.494 74.494 0 0 1-16.004 2.2c-.586-.009-1.175-.012-1.761-.02-.586-.012-1.168-.043-1.75-.059-.582-.015-1.16-.055-1.73-.082-.575-.031-1.141-.05-1.708-.098l-1.289-.066a9.858 9.858 0 0 1-.668-.039c-.226-.016-.457-.035-.683-.05l-.692-.048c-.234-.015-.469-.027-.7-.05l-1.41-.125c-.472-.036-.94-.094-1.41-.145l-1.374-.16-1.32-.192a31.212 31.212 0 0 1-1.25-.199c.148-.113-.227-.304-.844-.531l-2.274-.797c-.203-.074-.402-.14-.598-.215l-.554-.215c-.352-.144-.66-.277-.89-.39-.466-.23-.622-.395-.212-.434-.258-.062-.531-.14-.812-.219-.278-.074-.57-.156-.86-.238-.289-.082-.582-.156-.863-.25-.277-.094-.55-.18-.812-.262l-.72-.242-.312-.11-.27-.108c-.335-.133-.538-.239-.562-.29a1.981 1.981 0 0 0-.476-.542 4.96 4.96 0 0 0-.465-.348 10.495 10.495 0 0 0-.652-.434c-.5-.32-1.16-.668-1.989-1.133l-.656-.351c-.234-.125-.48-.246-.73-.387-.504-.277-1.07-.574-1.68-.898a50.518 50.518 0 0 0-1.598-.801c-.285-.129-.562-.285-.847-.426l-.825-.418-.394-.199c-.13-.066-.25-.137-.367-.2l-.657-.363c-.289-.16-.574-.332-.847-.52-.246-.19-.207-.21-.02-.144.188.067.512.2.836.34.645.281 1.29.559.809.196a71.44 71.44 0 0 0 22.304 7.828c.973.152 1.942.324 2.922.437l.739.106.367.047.367.035 1.476.152c.247.027.493.043.739.063l.738.046.738.055c.246.016.5.024.743.031.492.024.988.043 1.484.067l1.488.02c.25.003.496.011.746.003l.75-.008.746-.011c.25-.008.5-.008.75-.024.496-.02.993-.043 1.493-.066l.375-.02.375-.027.746-.059c1-.062 1.992-.187 2.992-.289l1.496-.207c.25-.035.5-.066.746-.105l.742-.125c.344-.04.805-.102 1.375-.192.57-.09 1.242-.218 2.012-.359.383-.082.785-.168 1.21-.262.216-.047.43-.093.657-.144.223-.047.45-.11.68-.168l1.445-.363c.496-.145 1.012-.293 1.54-.45a64.567 64.567 0 0 0 14.132-6.117 67.462 67.462 0 0 0 12.918-9.785 73.906 73.906 0 0 0 4.578-4.852c.316-.367.61-.73.89-1.074.286-.344.56-.664.801-.984l.684-.89c.219-.282.418-.54.59-.782.172-.246.348-.465.52-.695a84.77 84.77 0 0 0 4.527-6.942 112.666 112.666 0 0 0 3.629-6.781l.687-1.371c.117-.23.227-.461.336-.695.11-.235.219-.465.328-.7l.328-.703c.114-.234.211-.472.317-.71.203-.473.414-.95.617-1.427l-.332 1.348c-.102.43-.191.844-.297 1.219l.14-.371.13-.371.253-.73c.165-.485.336-.938.47-1.368.128-.426.269-.805.386-1.129.059-.164.11-.308.164-.441.055-.133.09-.246.129-.34.738-2.133.945-2.59 1.023-2.266.032.313.032.625-.004.934-.035.418-.082.918-.113 1.367-.094.629.035.55.14.559.106.007.188.105-.03 1.082l.289-.922.218-.809.22-.8.124-.442c.04-.152.078-.32.121-.496.047-.031.004.226-.094.601-.097.38-.253.887-.394 1.368l-.203.683c-.063.207-.117.39-.153.531-.07.282-.07.387.067.165l.14-.504c.047-.168.102-.344.153-.52.098-.348.203-.703.312-1.058.227-.707.418-1.43.59-2.13.024.133-.039.505-.137.985l-.074.375c-.031.129-.066.266-.101.402l-.227.844-.215.813-.187.675c-.102.387-.145.625-.078.586.07-.18.164-.52.273-.93.11-.41.211-.894.317-1.359.054-.234.109-.457.164-.672l.078-.308.07-.278c.09-.347.184-.59.262-.644.035-.016-.04.324-.137.758-.098.437-.254.957-.348 1.304.653-2.132 1.094-3.808 1.336-4.441.121-.313.196-.363.2-.082-.004.227-.02.453-.047.68-.032.316-.079.726-.172 1.23.047-.176.086-.355.125-.543l.113-.594.238-1.257c.043-.211.078-.43.11-.645l.105-.633c.07-.418.145-.82.219-1.191l.004.012c-.063.37-.137.878-.215 1.378l-.113.723c-.035.227-.082.434-.118.606.043-.211.094-.418.13-.63l.113-.632.218-1.262c.012.137.02.297.028.461-.043.317-.086.637-.133.957-.047.32-.094.645-.168.973.027-.14.059-.278.086-.418l.074-.422.152-.844c.004.434 0 .934-.027 1.48a77.85 77.85 0 0 0-.183 1.497c-.032.242-.055.48-.09.71l-.102.68c-.066.434-.129.848-.195 1.215a7.47 7.47 0 0 1-.106.516c-.039.16-.074.305-.109.437a71.963 71.963 0 0 1-11.488 24.16Zm0 0"/>
      </g>
    </g>
  </g>
</svg>
