<svg xmlns="http://www.w3.org/2000/svg" version="1.0" viewBox="154.88 82.77 223.75 258.85">
  <defs>
    <clipPath id="a">
      <path d="M198.102 183.73H330v126.688H198.102Zm0 0"/>
    </clipPath>
    <clipPath id="b">
      <path d="M254 82h125v66H254Zm0 0"/>
    </clipPath>
    <clipPath id="c">
      <path d="m240.863 113.594 17.051-37.535 120.805 54.879-17.055 37.535Zm0 0"/>
    </clipPath>
    <clipPath id="d">
      <path d="m240.863 113.594 17.051-37.535 120.805 54.879-17.055 37.535Zm0 0"/>
    </clipPath>
    <clipPath id="e">
      <path d="m240.863 113.594 17.051-37.535 120.805 54.879-17.055 37.535Zm0 0"/>
    </clipPath>
    <clipPath id="f">
      <path d="M154 98h109v61H154Zm0 0"/>
    </clipPath>
    <clipPath id="g">
      <path d="m259.52 92.055 16.687 32.722-104.848 53.465-16.683-32.722Zm0 0"/>
    </clipPath>
    <clipPath id="h">
      <path d="m276.336 125.027-16.688-32.722-104.847 53.465 16.687 32.722Zm0 0"/>
    </clipPath>
    <clipPath id="i">
      <path d="m276.336 125.027-16.688-32.722-104.847 53.465 16.687 32.722Zm0 0"/>
    </clipPath>
  </defs>
  <path fill-opacity=".4" d="M304.699 137.026c-1.04-.218-2.336-.496-3.371-.718-.614-.942-1.653-1.164-2.485-1.07-1.57 1.023-2.988 1.94-4.246 2.757-.848 1.445-1.484 2.527-2.336 3.973l-1.27 5.965c.15.574.458 1.043.243 1.406-.117 1.195-.652 2.433-.457 3.426.297 1.148-.442 2.074-.09 2.96.559 1.204-.496 2.337-.145 3.223.715 1.102-.18 2.13.07 2.86.298 1.148-.027 2.027-.09 2.964.04 1.09.392 1.981.071 2.86-.48.98.39 1.98.168 3.015-.32.883.133 1.926-.187 2.81-.38 1.136.492 2.136-.043 3.378-.535 1.238.437 2.395.32 3.59-.23 1.71.012 3.12-.32 4.676-.227 1.71.793 3.285.304 4.941-.378 1.14.594 2.297-.043 3.379-.48.984.493 2.137.118 3.277.87 1-.496 2.332-.043 3.38.613.944-.13 1.87-.192 2.804.926.742-.285 1.973.746 2.871 0 0-.054.258-.214.36-.692 1.343.28 2.5.007 3.796.817 1.258-.238 2.387.004 3.793.297 1.149.54 2.555.207 4.113-.11.516.14 1.247.133 1.922-.008.676-.328 1.559-.18 2.133.508.785-.074 1.61.438 2.395.508.789-.805 1.863-.09 2.965.25.73-.332 1.554.281 2.496-.488 1.66-.402 3.168.2 4.789-.7 2.015.007 3.793-.02 5.82l-2.2 1.43c-.261-.055-.777-.168-1.038-.223-.73.254-1.313 1.078-2.09.91-.879-.32-1.406.242-1.879.551-.73.25-1.555-.332-2.082.234-.527.563-1.258.817-1.73 1.121-.52-.109-.778-.164-1.297-.277l-2.985 1.941c-.52-.113-.781-.167-1.039-.222-.887.355-1.629 1.281-2.719 1.32-.261-.055-.52-.113-.777-.168-1.418.918-2.988 1.942-4.402 2.86-.52-.114-.938-.067-1.297-.278-2.047 1.328-3.934 2.551-5.977 3.88-.258-.056-.52-.114-1.035-.224-2.676 1.735-5.605 3.415-8.437 5.25l-.52-.109-.406-.629c.219-1.035.699-2.02.293-2.648-.356-.887.07-1.61.133-2.547.066-.934-.547-1.875-.067-2.86.582-.824-.242-1.406-.234-2.082.164-.777.59-1.5.394-2.492-.25-.73.23-1.71.137-2.543-.148-.574-.559-1.203-.133-1.925.48-.985-.187-1.668-.125-2.602.176-1.453.766-2.953.317-4.676.797-1.187-.176-2.344.097-3.637.38-1.14.442-2.074.301-3.324-.14-1.25-.121-2.601-.004-3.797.278-1.297-.484-2.812.207-4.156.852-1.445-.328-2.914.367-4.258.32-.883-.55-1.879-.07-2.863.379-1.137.442-2.074.3-3.32-.452-1.047.24-2.39.458-3.426-.918-1.418.61-2.856.207-4.16-.445-1.719.246-3.063.477-4.778.054-.257.324-.878.12-1.191-.761-1.52.606-2.855.364-4.262-.606-1.617.09-2.96.418-4.515a108.588 108.588 0 0 1 1.933-9.075c.055-.261.008-.675-.039-1.093-1.398-.434-.445-1.723-.8-2.61-.305-.472-.711-1.101-1.325-2.043-1.039-.222-2.39-.238-3.066-.246-.77-.843-1.129-1.054-1.492-1.265-1.258.816-2.516 1.632-3.774 2.445-.218 1.039-1.015 2.227-1.754 3.152-.425.723-.59 1.5-1.273 2.168-.684.668.133 1.926-.035 2.703-.285 1.973.164 3.692-.223 5.508.668.684-.074 1.61.438 2.399.351.886-.805 1.859-.09 2.96.254.731-.328 1.555.281 2.5-.644 1.758.063 3.536.09 5.305-.172 1.453.172 3.016.102 4.63.082 1.507-.145 3.218.199 4.784-.055.258.148.575.093.832-.062.934-.699 2.02.07 2.86-.581.824.446 1.722.02 2.445-.218 1.035-.023 2.027-.09 2.961.04 1.094.497 2.14.22 3.434-.22 1.039.023 2.445.32 3.593.101.157-.11.52-.165.778-.277 1.297-.136 2.547.16 3.691.4 1.305-.812 2.54.165 3.695-.278 1.297.539 2.555-.153 3.899.29 1.82-.254 3.738.293 5.617.297 1.148-.441 2.074-.09 2.961.301 1.148.235 2.086.375 3.336.094.832-.488 1.656.07 2.86.25.73.391 1.98.067 2.859-.48.98.133 1.925.07 2.859-.062.938.391 1.98.067 2.863-.266.617-.016 1.352.078 2.184l-21.383 13.875c-.156.105-.054.262-.215.363-.054.258-.007.676-.062.934l-8.176 5.308c-.21.36-.164.778-.379 1.137-1.57 1.02-2.988 1.941-4.246 2.754-.535 1.242-1.219 1.91-1.281 2.844-.117 1.195-1.219 1.91-1.34 3.105l-.66 3.11c.77.843 1.012 2.25 2.3 3.203.833-.094 1.923-.133 2.758-.227.204.313.305.469.508.785 1.04.22 2.074.442 3.114.664 1.414-.922 2.988-1.941 4.402-2.859.11-.52.062-.934.277-1.297 1.258-.816 2.516-1.633 3.614-2.348.113-.515.324-.878.433-1.398 1.258-.816 2.36-1.527 3.617-2.344.055-.261.008-.676.121-1.195a2952.94 2952.94 0 0 0 3.614-2.348c.27-.62.48-.98.535-1.242 1.418-.918 2.676-1.734 3.305-2.14a40.54 40.54 0 0 0 3.07-.43c.262.054 1.242.535 2.176.597 1.093-.039 2.242-.335 3.222.145.512.785.918 1.414 1.328 2.043.04 1.094-.183 2.129.168 3.02.559 1.203-.234 2.386-.039 3.378.453 1.043-.129 1.868.067 2.86-.063.933.133 1.926.488 2.812.297 1.149-.86 2.121-.043 3.38.352.89-.645 1.76-.348 2.905.352.891.547 1.88.485 2.817-.063.933-.86 2.12-.504 3.008.297 1.148-.5 2.336-.145 3.222.555 1.203.235 2.082-.09 2.961-.378 1.14.391 1.98.07 2.864-.534 1.238.177 2.34-.042 3.378-.223 1.036-.543 1.914-.664 3.11-.063.933.133 1.926.07 2.86-.223 1.038-.496 2.335-.875 3.472-.062.937-.285 1.972-.55 2.594.816 1.257 1.425 2.203 2.14 3.3 1.195.121 2.23.34 3.27.563.464.367.824.582 1.027.894.316-.203.629-.406 1.047-.453.164-.777.23-1.715.238-2.39.676.011 1.09-.036 1.71.23.481-.98 1.22-1.91 1.544-2.789.324-.879.644-1.758.55-2.594-.242-1.406-.484-2.812-.624-4.062-.508-.785-1.121-1.727-1.735-2.672.215-.363.168-.777.223-1.04-.254-.73-.762-1.515-.754-2.19-.086-1.508-.273-3.176-.461-4.84-.086-1.508-.531-3.23-.617-4.739-.188-1.668-.633-3.39-.3-4.945-1.079-1.312.605-2.852-.47-4.164.38-1.14-.437-2.398.254-3.742.266-.617-.504-1.461-.281-2.496.324-.883.285-1.973.035-2.703-.3-1.149.18-2.13.086-2.965-.14-1.25-.336-2.239.043-3.38.11-.515.219-1.034 1.11-1.39.777.168 2.074.442 3.054.922.984.48 1.856 1.48 2.79 1.543 1.194.121 1.964.961 3.1 1.34.985.48 1.438 1.523 2.524 2.16.88.324 2.176.602 2.52 2.164.418-.047.777.168 1.297.277.406.63.918 1.414 1.43 2.2.413-.047.777.168 1.296.277 1.121 1.73 2.242 3.46 3.262 5.031.52.11.883.324 1.14.38 2.04 3.144 3.88 5.972 5.817 8.96-.055.262-.11.52-.223 1.04 1.125 1.73 2.246 3.456 3.367 5.187l-.273 1.297 1.836 2.832c-.691 1.34.652 2.035.687 3.125-.054.261-.109.52-.062.937l1.43 2.2c-.637 1.085.336 2.241-.043 3.378 1.382 1.785.726 4.223 1.472 7.09 0 0 .512.785.918 1.414.77.844.965 1.832 1.79 2.414 1.296.277 2.593.555 4.046.727.473-.305.946-.614 1.414-.918.215-.36.168-.778.38-1.14.944-.61 1.886-1.224 2.987-1.938.34-2.23.782-4.305 1.38-6.48-.715-1.102-.075-2.188.042-3.38-.047-.418-.351-.89-.343-1.566-.235-2.082-.625-4.063-.602-6.09.063-.934-1.281-1.625-.742-2.867.055-.262-.613-.946-.762-1.52-.207-.312.008-.676.117-1.191-.406-.629-.918-1.418-1.43-2.203.114-.52.169-.778.278-1.297-.305-.473-.613-.942-.918-1.414.11-.52.219-1.04.277-1.297-1.015-2.246 0-4.473-.492-6.61.793-1.183-.437-2.394-.004-3.792-.972-1.157.707-2.696-.367-4.012.379-1.137-.336-2.238.043-3.379.48-.98-.496-2.137.145-3.219.636-1.086.234-2.39.039-3.379.066-.937-.391-1.98.09-2.965.324-.878-.551-1.878-.07-2.859.48-.98.757-2.277.042-3.379.535-1.242.395-2.492.254-3.738-.195-.992-.547-1.879-.066-2.863.109-.516.535-1.239.226-1.711-.453-1.047.13-1.871.09-2.965-.195-.988.082-2.285.043-3.38-.094-.831-.29-1.82.031-2.702.324-.88-.601-1.617-.12-2.602.155-.101-.31-.469-.614-.941.32-.88.855-2.121.82-3.215-.3-1.145-.078-2.184.14-3.219.278-1.297.5-2.336.618-3.531.934.066 1.61.074 2.344-.176 2.61-.8 3.18-.949 5.672-.554l3.617-2.348c-.094-.832.59-1.5.078-2.285-1.492-1.266-3.426-.461-5.293-.586-.629.406-1.418.918-2.203 1.43-1.082-.641-1.824.289-2.711.64-.723-.426-1.61-.07-2.324-1.172.109-.52.433-1.398.597-2.176.008-.675.278-1.296.028-2.027-.254-.73.226-1.715.289-2.648.176-1.453-.168-3.02.164-4.575-.613-.941.441-2.074.187-2.804-.656-1.36.239-2.39-.113-3.278-.402-1.304.023-2.027.09-2.96.164-.782.43-1.399-.078-2.188-.356-.887 1.015-2.223.043-3.379l.054-.258c.91-2.379.114-4.988.868-7.27.27-.62-.555-1.202-.235-2.081.426-.723.805-1.86.555-2.594-.356-.887.125-1.867-.07-2.86-.04-1.09-.336-2.238.144-3.222.48-.98.024-2.027.09-2.961.016-1.352 1.07-2.48.152-3.898.117-1.192.395-2.489.715-3.372-.25-.73-.297-1.144-.5-1.46.488-1.657.766-2.954 1.094-4.508l-.406-.63c.285-1.972.726-4.046 1.168-6.12l-.41-.63c.44-2.073.882-4.148 1.269-5.964-.047-.414-.25-.73-.352-.887.559-3.27 1.278-6.64 1.942-9.75-.047-.418-.254-.734-.356-.89.774-3.63 1.391-7.157 2.106-10.528-.188-1.668-.27-3.176-.516-4.582-.304-.472-.508-.785-.812-1.258Zm-59.59 139.227c-.262-.059-.418.047-.52-.113-.101-.157-.047-.414.008-.676.102.16.258.055.36.215.105.156.046.414.152.574Zm47.246-28.43c.344 1.567.531 3.23.46 4.844-.222 1.035.337 2.238-.144 3.219-.218 1.039.235 2.086.07 2.863-.331 1.555.067 2.86.051 4.211-.015 1.352.485 2.812.207 4.11-.218 1.038.34 2.238.375 3.331-.062.934-.44 2.075-.187 2.805.555 1.203-.34 2.23-.043 3.379.344 1.566.79 3.285.461 4.844-.332 1.554.168 3.015-.059 4.73-.277 1.293.328 2.914.254 4.524.102.16.309.472.41.629-.175 1.453-1.285 2.843-.367 4.261-.375 1.137.442 2.395.008 3.793-.324.88.234 2.082-.246 3.067-.16.101-.418.047-.418.047-1.121-1.73-2.246-3.461-3.367-5.192-.52-.11-.88-.32-1.297-.273-.613-.946-1.324-2.047-1.938-2.989-.52-.109-.777-.168-1.296-.277-.512-.785-.918-1.414-1.43-2.2-.36-.214-.777-.167-1.137-.378-.41-.629-.816-1.258-1.226-1.887-.98-.48-1.704-.906-2.473-1.746-.41-.629-1.344-.691-1.856-1.48-.406-.63-1.492-1.266-2.37-1.59-1.036-.219-1.493-1.266-2.583-1.227-.3-1.148-1.605-.746-2.375-1.59-.406-.629-1.812-.386-2.379-.91-.77-.844-1.918-.547-2.796-.867a89.978 89.978 0 0 0-.512-.789c-4.508-1.094-9.074-1.93-13.582-3.027-.344-1.563.504-3.008.465-4.102-.25-.73-.297-1.144-.5-1.46l3.773-2.45c.211-.36.266-.621.32-.879.16-.102.371-.465.528-.566 5.976-3.875 12.11-7.856 18.082-11.735.261.055.676.008.937.063.102.16.258.058.414-.047l8.649-5.61 1.297.274c1.101-.711 2.359-1.527 3.46-2.242.415-.047.934.062 1.352.015.574-.148 1.203-.558 1.934-.808.52.11.926.738 1.074 1.312Zm0 0"/>
  <path d="M293.24 134.587c-1.04-.219-2.336-.496-3.371-.719-.613-.941-1.653-1.164-2.485-1.07-1.57 1.023-2.988 1.941-4.246 2.758-.847 1.445-1.484 2.527-2.336 3.972-.386 1.817-.882 4.149-1.27 5.965.15.574.458 1.043.243 1.406-.117 1.196-.652 2.434-.457 3.426.297 1.149-.441 2.074-.09 2.961.559 1.203-.496 2.336-.144 3.223.715 1.101-.18 2.129.07 2.86.297 1.148-.027 2.026-.09 2.964.04 1.09.39 1.98.07 2.86-.48.98.391 1.98.168 3.015-.32.883.133 1.926-.187 2.809-.379 1.136.492 2.136-.043 3.378-.535 1.239.437 2.395.32 3.59-.23 1.711.012 3.121-.32 4.676-.227 1.711.793 3.285.305 4.941-.38 1.141.593 2.297-.043 3.38-.48.984.492 2.136.117 3.277.871 1-.496 2.332-.043 3.379.613.945-.129 1.87-.192 2.804.926.742-.285 1.973.747 2.871 0 0-.055.258-.215.36-.692 1.344.281 2.5.008 3.797.816 1.257-.239 2.386.003 3.793.297 1.148.54 2.554.207 4.113-.109.516.141 1.246.133 1.922-.008.676-.328 1.558-.18 2.133.508.785-.074 1.609.438 2.394.508.79-.805 1.863-.09 2.965.25.73-.332 1.555.282 2.496-.489 1.66-.403 3.168.199 4.79-.7 2.015.008 3.792-.02 5.82-.629.41-1.414.917-2.199 1.43-.262-.056-.777-.169-1.04-.224-.73.254-1.312 1.079-2.089.91-.879-.32-1.406.243-1.879.551-.73.25-1.555-.332-2.082.235-.527.562-1.258.816-1.73 1.12-.52-.109-.778-.163-1.297-.276l-2.985 1.94-1.039-.222c-.886.356-1.629 1.282-2.718 1.32-.262-.054-.52-.113-.778-.167-1.418.918-2.988 1.941-4.402 2.859-.52-.113-.938-.066-1.297-.277-2.047 1.328-3.934 2.55-5.977 3.879-.257-.055-.519-.114-1.035-.223-2.675 1.734-5.605 3.414-8.437 5.25l-.52-.11-.406-.628c.219-1.036.7-2.02.293-2.649-.355-.887.07-1.61.133-2.547.066-.933-.547-1.875-.067-2.86.582-.823-.242-1.405-.234-2.081.164-.777.59-1.5.395-2.492-.25-.73.23-1.711.136-2.543-.148-.574-.558-1.203-.133-1.926.481-.984-.187-1.668-.125-2.602.176-1.453.766-2.953.317-4.675.797-1.188-.176-2.344.098-3.637.378-1.14.441-2.074.3-3.324-.14-1.25-.12-2.602-.004-3.797.278-1.297-.484-2.813.207-4.156.852-1.446-.328-2.915.368-4.258.32-.883-.551-1.88-.07-2.864.378-1.136.44-2.074.3-3.32-.453-1.047.238-2.39.457-3.426-.918-1.418.61-2.855.207-4.16-.445-1.719.246-3.062.477-4.777.054-.258.324-.879.12-1.192-.76-1.52.606-2.855.364-4.261-.605-1.617.09-2.961.418-4.516a108.588 108.588 0 0 1 1.934-9.074c.054-.262.007-.676-.04-1.094-1.398-.433-.445-1.723-.8-2.61-.305-.472-.711-1.1-1.324-2.042-1.04-.223-2.391-.238-3.067-.246-.77-.844-1.129-1.055-1.492-1.266-1.258.816-2.516 1.633-3.773 2.445-.22 1.04-1.016 2.227-1.754 3.153-.426.722-.59 1.5-1.274 2.168-.683.668.133 1.925-.035 2.703-.285 1.972.164 3.691-.223 5.508.668.683-.074 1.609.438 2.398.351.887-.805 1.86-.09 2.961.254.73-.328 1.555.281 2.5-.644 1.758.063 3.535.09 5.305-.172 1.453.172 3.015.102 4.629.082 1.507-.145 3.218.199 4.785-.055.258.148.574.094.832-.063.933-.7 2.02.07 2.86-.582.823.445 1.722.02 2.444-.22 1.036-.024 2.028-.09 2.961.039 1.094.496 2.141.218 3.434-.218 1.04.024 2.445.32 3.594.102.156-.109.52-.163.777-.278 1.297-.137 2.547.16 3.692.398 1.304-.813 2.539.164 3.695-.277 1.297.539 2.555-.152 3.898.289 1.82-.254 3.739.293 5.617.296 1.149-.442 2.075-.09 2.961.3 1.149.234 2.086.375 3.336.093.832-.489 1.657.07 2.86.25.73.39 1.98.066 2.86-.48.98.133 1.925.07 2.858-.062.938.391 1.98.067 2.864-.265.617-.015 1.351.078 2.183l-21.383 13.875c-.156.106-.054.262-.214.364-.055.257-.008.675-.063.933l-8.176 5.309c-.21.36-.164.777-.379 1.137-1.57 1.019-2.988 1.94-4.246 2.753-.535 1.243-1.218 1.91-1.28 2.844-.118 1.195-1.22 1.91-1.34 3.106-.22 1.035-.442 2.074-.66 3.109.769.844 1.01 2.25 2.3 3.203.832-.094 1.922-.133 2.758-.226.203.312.304.468.507.785 1.04.218 2.075.441 3.114.664 1.414-.922 2.988-1.942 4.402-2.86.11-.52.063-.933.277-1.296 1.258-.817 2.516-1.633 3.614-2.348.113-.516.324-.879.433-1.399 1.258-.816 2.36-1.527 3.618-2.343.054-.262.007-.676.12-1.196 1.258-.816 2.516-1.632 3.614-2.347.27-.621.48-.98.535-1.242 1.418-.918 2.676-1.735 3.305-2.141a40.54 40.54 0 0 0 3.07-.43c.262.055 1.242.535 2.176.598 1.094-.04 2.242-.336 3.222.144.512.786.918 1.414 1.329 2.043.039 1.094-.184 2.13.168 3.02.558 1.203-.235 2.387-.04 3.379.454 1.043-.128 1.867.067 2.86-.063.933.133 1.925.488 2.812.297 1.148-.86 2.12-.043 3.379.352.89-.644 1.761-.347 2.906.351.89.546 1.879.484 2.816-.063.934-.86 2.121-.504 3.008.297 1.149-.5 2.336-.144 3.223.554 1.203.234 2.082-.09 2.96-.38 1.141.39 1.981.07 2.864-.535 1.238.176 2.34-.043 3.379-.223 1.035-.543 1.914-.664 3.11-.063.933.133 1.925.07 2.859-.222 1.039-.496 2.336-.875 3.472-.062.938-.285 1.973-.55 2.594.816 1.258 1.425 2.203 2.14 3.3 1.195.122 2.23.34 3.27.563.464.367.824.582 1.027.895.316-.203.629-.406 1.047-.453.164-.778.23-1.715.238-2.39.676.01 1.09-.036 1.711.23.48-.98 1.219-1.91 1.543-2.79.324-.878.645-1.757.55-2.593-.241-1.407-.484-2.813-.624-4.063-.508-.785-1.121-1.726-1.735-2.672.215-.363.168-.777.223-1.039-.254-.73-.762-1.515-.754-2.191-.086-1.508-.273-3.176-.46-4.84-.087-1.508-.532-3.23-.618-4.738-.187-1.668-.633-3.39-.3-4.946-1.079-1.312.605-2.851-.47-4.164.38-1.14-.437-2.398.254-3.742.266-.617-.503-1.46-.28-2.496.323-.883.284-1.973.034-2.703-.3-1.148.18-2.129.086-2.965-.14-1.25-.336-2.238.043-3.379.11-.515.219-1.035 1.11-1.39.777.168 2.074.441 3.054.921.985.481 1.856 1.481 2.79 1.543 1.195.122 1.964.961 3.101 1.34.984.48 1.437 1.524 2.523 2.16.88.325 2.176.602 2.52 2.165.418-.047.777.167 1.297.277.406.629.918 1.414 1.43 2.2.414-.048.777.167 1.296.276l3.262 5.032c.52.109.883.324 1.14.379 2.04 3.144 3.88 5.972 5.817 8.96-.055.262-.11.52-.223 1.04 1.125 1.73 2.247 3.457 3.368 5.187l-.274 1.297 1.836 2.832c-.691 1.34.652 2.035.688 3.125-.055.262-.11.52-.063.937.41.63.918 1.415 1.43 2.2-.637 1.086.336 2.242-.043 3.379 1.383 1.785.726 4.222 1.473 7.09 0 0 .511.785.917 1.414.77.843.965 1.832 1.79 2.414 1.296.277 2.593.554 4.046.726.473-.305.946-.613 1.414-.918.215-.36.168-.777.38-1.14.945-.61 1.886-1.223 2.988-1.938.34-2.23.78-4.305 1.379-6.48-.715-1.102-.075-2.188.043-3.38-.047-.417-.352-.89-.344-1.566-.235-2.082-.625-4.062-.602-6.09.063-.933-1.281-1.625-.742-2.867.055-.261-.613-.945-.762-1.52-.207-.312.008-.675.118-1.19-.407-.63-.918-1.419-1.43-2.204.113-.52.168-.777.277-1.297-.305-.472-.613-.941-.918-1.414.11-.52.219-1.039.278-1.297-1.016-2.246 0-4.472-.493-6.609.793-1.184-.437-2.395-.004-3.793-.972-1.156.707-2.695-.367-4.012.38-1.136-.336-2.238.043-3.379.48-.98-.496-2.136.145-3.218.636-1.086.234-2.391.039-3.38.066-.937-.39-1.98.09-2.964.324-.879-.551-1.879-.07-2.86.48-.98.757-2.277.042-3.378.535-1.243.395-2.493.254-3.739-.195-.992-.547-1.879-.066-2.863.11-.516.535-1.238.226-1.71-.453-1.048.13-1.872.09-2.966-.195-.988.082-2.285.043-3.379-.094-.832-.289-1.82.031-2.703.325-.879-.601-1.617-.12-2.601.156-.102-.31-.47-.614-.942.32-.879.856-2.12.82-3.215-.3-1.144-.078-2.183.141-3.218.277-1.297.5-2.336.617-3.532.934.067 1.61.075 2.344-.175 2.61-.801 3.18-.95 5.672-.555l3.617-2.348c-.094-.832.59-1.5.078-2.285-1.492-1.265-3.426-.46-5.293-.586-.629.406-1.418.918-2.203 1.43-1.082-.64-1.824.289-2.71.64-.724-.425-1.61-.07-2.325-1.171.11-.52.433-1.399.598-2.176.007-.676.277-1.297.027-2.027-.254-.731.226-1.715.289-2.649.176-1.453-.168-3.02.164-4.574-.613-.942.441-2.074.188-2.805-.657-1.36.238-2.39-.114-3.277-.402-1.305.024-2.028.09-2.961.164-.781.43-1.399-.078-2.188-.356-.886 1.016-2.222.043-3.379l.055-.257c.91-2.38.113-4.989.867-7.27.27-.621-.555-1.203-.235-2.082.426-.723.805-1.86.555-2.594-.355-.886.125-1.867-.07-2.859-.04-1.09-.336-2.238.144-3.223.48-.98.024-2.027.09-2.96.016-1.352 1.07-2.481.153-3.899.117-1.191.394-2.488.714-3.371-.25-.73-.297-1.145-.5-1.461.489-1.656.766-2.953 1.094-4.508-.101-.16-.305-.473-.406-.629.285-1.972.726-4.047 1.168-6.12l-.41-.63c.441-2.074.882-4.148 1.27-5.965-.048-.414-.25-.73-.352-.886.558-3.27 1.277-6.641 1.941-9.75-.047-.418-.254-.735-.355-.891.773-3.629 1.39-7.156 2.105-10.527-.187-1.668-.27-3.176-.516-4.582-.304-.473-.507-.786-.812-1.258Zm-59.59 139.226c-.262-.058-.418.047-.52-.113-.101-.156-.046-.414.008-.676.102.16.258.055.36.215.105.156.047.414.152.574Zm47.246-28.43c.344 1.567.531 3.231.461 4.844-.223 1.036.336 2.239-.144 3.22-.22 1.038.234 2.085.07 2.862-.332 1.555.066 2.86.05 4.211-.015 1.352.485 2.813.208 4.11-.219 1.039.34 2.238.375 3.332-.063.933-.442 2.074-.188 2.805.555 1.203-.34 2.23-.043 3.378.344 1.567.79 3.286.461 4.844-.332 1.555.168 3.016-.058 4.73-.278 1.294.328 2.915.253 4.524.102.16.31.473.41.629-.175 1.453-1.285 2.844-.367 4.262-.375 1.136.442 2.394.008 3.793-.324.879.235 2.082-.246 3.066-.16.102-.418.047-.418.047-1.12-1.73-2.246-3.461-3.367-5.191-.52-.11-.879-.32-1.297-.274-.613-.945-1.324-2.047-1.937-2.988-.52-.11-.778-.168-1.297-.278-.512-.785-.918-1.414-1.43-2.199-.36-.215-.777-.168-1.137-.379l-1.226-1.886c-.98-.48-1.703-.907-2.473-1.746-.41-.63-1.344-.692-1.855-1.48-.407-.63-1.493-1.267-2.371-1.59-1.036-.22-1.493-1.266-2.582-1.227-.301-1.149-1.606-.746-2.375-1.59-.407-.63-1.813-.387-2.38-.91-.769-.844-1.917-.547-2.796-.868a89.978 89.978 0 0 0-.512-.789c-4.508-1.093-9.074-1.93-13.582-3.027-.344-1.562.504-3.008.465-4.101-.25-.731-.297-1.145-.5-1.461l3.773-2.45c.211-.359.266-.62.32-.879.16-.101.372-.464.528-.566 5.977-3.875 12.11-7.855 18.082-11.734.262.054.676.007.937.062.102.16.258.059.415-.047 2.832-1.836 5.82-3.773 8.648-5.61l1.297.274c1.101-.71 2.36-1.527 3.46-2.242.415-.047.934.063 1.352.016.575-.149 1.203-.559 1.934-.809.52.11.926.738 1.074 1.313Zm0 0"/>
  <g clip-path="url(#a)">
    <path d="M223.238 202.09a37.012 37.012 0 0 0-4.152 4.008 71.82 71.82 0 0 1 1.89-1.887 91.337 91.337 0 0 1 2.262-2.121m-6.12 1.18v.003a49.918 49.918 0 0 0-2.72 2.598 39.051 39.051 0 0 0-2.117 2.383c1.41-1.59 3.02-3.25 4.836-4.984m105.969 29.632-.027.266-.004.27.011.273.04.277.066.278.09.289.125.289.156.3.195.305.235.317.273.324.32.336a139.099 139.099 0 0 0-1.48-3.524m-59.223-49.129-.847.008c-17.77.766-33.059 7.254-45.864 19.457 13.45-11.777 28.543-17.84 45.282-18.187 8.722.058 16.148 1.375 22.285 3.945 9.172 3.668 16.504 8.082 22 13.234 3.996 3.743 6.969 7.063 8.93 9.965-4.919-6.918-12.356-12.89-22.31-17.922-10.823-4.968-21.39-7.453-31.698-7.453-13.942-.273-26.735 4.809-38.38 15.25 12.024-9.586 25.466-13.84 40.325-12.754 17.27 1.563 31.762 7.739 43.48 18.528 6.383 6.023 11.723 14.375 16.02 25.05.828-2.71 1.062-4.34.707-4.886a61.163 61.163 0 0 1 3.035 15.906c1.156 15.547-3.71 30.195-14.601 43.95 17.867-20.165 21.488-42.637 10.851-67.423-5.789-11.832-13.39-20.476-22.805-25.941-11.773-7.04-23.91-10.617-36.41-10.727m48.34 104.11-.45.484a109.857 109.857 0 0 1-4.358 4.442l1.05-.84.23-.192c.067-.047.333-.297.798-.757a33.19 33.19 0 0 0 1.273-1.383l.711-.832.746-.922m-93.14-81.762-1.106 1.16c-12.57 14.078-18.176 29.883-16.809 47.414-2.023-7.539-1.918-15.422.317-23.652 2.156-8.707 5.754-16.293 10.797-22.766-8.348 9.57-12.926 21.82-13.742 36.754-.024 2.696.425 6.07 1.351 10.125 3.258 11.547 5.16 17.676 5.715 18.383 3.59 8.168 7.82 14.512 12.684 19.027 6.214 5.809 13.058 10.168 20.53 13.082 7.544 3.125 14.688 4.63 21.438 4.504 9.657-.207 18.73-1.648 27.223-4.316 6.172-2.195 12.809-6.535 19.922-13.016-7.36 5.86-13.684 9.606-18.98 11.243-9.915 2.722-19.063 4.015-27.45 3.886-5.258.363-12.75-1.543-22.473-5.722-7.097-3.102-12.964-6.934-17.59-11.493-3.699-3.703-6.507-7.16-8.43-10.37 5.727 6.866 14.036 13.417 24.923 19.656 5.234 2.914 10.445 5 15.637 6.265 1.332.305 2.085.414 2.261.328.094-.031.086-.097-.027-.199.226.16.57.012 1.031-.45.383-.464.637-.925.754-1.374-6.871-.16-17.457-4.844-31.762-14.05-8.16-6.087-14.304-13.228-18.425-21.423-3.907-9.328-4.747-20.402-2.528-33.219 1.633-9.949 6.543-19.875 14.738-29.777"/>
  </g>
  <g clip-path="url(#b)">
    <g clip-path="url(#c)">
      <g clip-path="url(#d)">
        <g clip-path="url(#e)">
          <path fill="#202020" d="M270.34 117.438c.094-.051-.16-.532.406.078.215.246.422.484.617.73l.29.363.292.352c.383.465.75.937 1.106 1.402.18.239.37.461.558.692.192.23.38.457.582.687.204.23.403.457.618.688.21.23.441.453.68.68.081.003.167.011.257.015.336.375.68.758 1.027 1.14.344.38.715.75 1.075 1.133.183.192.363.38.547.57.183.196.375.38.562.567.383.375.766.754 1.148 1.133a80.053 80.053 0 0 0 9.465 7.164c-.05-.11-.062-.187.285.016.172.113.352.226.54.347.187.121.386.243.59.371.402.258.835.528 1.28.817.114.074.227.148.344.222l.348.211c.238.145.48.29.723.434l.738.45.375.222c.125.074.25.14.383.215.312.156.62.316.926.468.25.098.343.079.398.063.234.129.453.258.676.375l.652.34c.426.222.828.437 1.211.64a79.349 79.349 0 0 0 8.086 3.141 77.029 77.029 0 0 0 8.492 2.258 84.07 84.07 0 0 0 18.067 1.71c.66-.034 1.316-.07 1.976-.105.656-.039 1.309-.097 1.961-.144.649-.047 1.293-.113 1.938-.172.64-.059 1.273-.113 1.902-.188l1.445-.132c.246-.02.496-.047.746-.075.254-.03.512-.062.766-.09l.773-.085c.262-.028.524-.051.782-.09l1.574-.203c.527-.059 1.047-.149 1.57-.227l1.535-.242 1.473-.274c.48-.09.945-.175 1.39-.28-.171-.122.239-.352.915-.634l2.507-.992c.223-.09.442-.176.657-.265l.61-.27c.386-.172.726-.336.98-.473.507-.28.675-.468.21-.496.29-.078.59-.18.899-.277.312-.102.633-.203.953-.309.32-.105.645-.199.953-.316.309-.117.61-.227.895-.332l.797-.305.343-.133.297-.132c.367-.164.59-.293.617-.348.13-.242.297-.453.504-.629.16-.144.328-.285.5-.414.2-.152.434-.324.707-.512.547-.379 1.266-.797 2.168-1.355l.72-.422c.253-.149.523-.293.796-.465.55-.332 1.168-.687 1.836-1.078a49.592 49.592 0 0 1 1.746-.965c.313-.16.617-.344.926-.516l.902-.503.434-.239c.14-.082.273-.168.398-.238l.719-.437c.316-.192.625-.399.922-.622.265-.222.219-.242.012-.16a16.58 16.58 0 0 0-.915.418c-.71.34-1.418.68-.898.254a79.845 79.845 0 0 1-24.586 9.758c-1.082.215-2.16.453-3.254.629l-.82.148-.41.07-.41.06-1.645.234c-.273.043-.55.07-.824.101l-.828.09-.825.094c-.277.031-.558.05-.828.07l-1.664.14-1.668.094c-.281.016-.558.036-.836.04l-.843.023-.836.023c-.282.004-.563.016-.84.012-.559-.004-1.121-.004-1.68-.008l-.422-.004-.422-.015-.84-.028c-1.124-.023-2.246-.117-3.374-.183l-1.688-.16c-.281-.032-.562-.051-.844-.086l-.836-.102a45.375 45.375 0 0 1-1.55-.152c-.645-.074-1.407-.188-2.278-.305-.433-.078-.89-.156-1.375-.238a70.697 70.697 0 0 0-.742-.13c-.25-.042-.508-.1-.77-.155l-1.644-.34c-.563-.137-1.148-.281-1.75-.43a73.896 73.896 0 0 1-7.805-2.426 71.682 71.682 0 0 1-8.379-3.738 76.62 76.62 0 0 1-15.023-10.312 81.374 81.374 0 0 1-5.399-5.196c-.375-.394-.722-.785-1.058-1.156-.34-.367-.664-.715-.95-1.059l-.82-.964a29.381 29.381 0 0 1-.699-.84c-.207-.266-.414-.504-.625-.754a95.78 95.78 0 0 1-5.457-7.524 129.041 129.041 0 0 1-4.437-7.394l-.848-1.496c-.145-.25-.277-.504-.414-.758-.133-.258-.27-.512-.406-.77l-.41-.765c-.133-.258-.258-.52-.387-.778-.258-.52-.52-1.039-.774-1.562l.446 1.488c.14.477.261.93.398 1.344l-.18-.406-.164-.406-.324-.805c-.21-.531-.426-1.031-.598-1.5-.171-.469-.347-.887-.496-1.242-.074-.18-.14-.34-.207-.485-.07-.148-.113-.27-.164-.375-.945-2.34-1.203-2.84-1.27-2.476-.023.351-.003.695.055 1.043.063.465.141 1.015.2 1.515.14.7-.008.617-.13.633-.116.016-.202.125.094 1.203l-.37-1.011-.29-.895-.293-.883-.16-.484c-.054-.168-.105-.352-.164-.547-.055-.031.008.25.137.664.129.418.332.977.515 1.508l.266.754c.086.226.156.43.203.582.094.308.102.425-.066.187-.063-.183-.125-.37-.188-.558-.062-.184-.132-.375-.195-.57-.129-.387-.27-.774-.41-1.165a35.85 35.85 0 0 1-.777-2.347c-.02.148.07.558.207 1.09l.105.413c.04.145.09.293.133.446l.3.93.286.894.246.746c.137.426.195.692.121.652-.09-.199-.215-.574-.36-1.023-.144-.453-.285-.988-.425-1.504-.074-.258-.149-.504-.219-.742l-.11-.34-.093-.305c-.121-.382-.234-.652-.328-.703-.04-.02.062.356.195.836.137.48.336 1.055.461 1.438-.848-2.348-1.434-4.196-1.738-4.887-.156-.344-.238-.398-.23-.086.015.254.046.504.09.758.054.348.128.805.257 1.363-.059-.195-.113-.39-.164-.601l-.164-.653-.336-1.394a14.38 14.38 0 0 1-.156-.711l-.153-.703a35.17 35.17 0 0 0-.312-1.317l-.004.012c.09.41.203.973.316 1.527l.168.801c.055.25.114.48.164.668-.058-.23-.125-.46-.18-.695l-.16-.7-.316-1.394c-.004.152-.004.332-.004.512.067.351.13.707.2 1.062.07.356.144.715.245 1.078-.039-.156-.082-.304-.12-.46l-.106-.47-.219-.933c.02.484.051 1.04.113 1.648.102.56.196 1.118.286 1.657.047.27.09.539.14.793l.149.75c.101.48.195.937.289 1.347.043.204.094.391.144.567.051.176.102.34.149.488 3.082 9.668 7.816 18.469 14.203 26.398Zm0 0"/>
        </g>
      </g>
    </g>
  </g>
  <g clip-path="url(#f)">
    <g clip-path="url(#g)">
      <g clip-path="url(#h)">
        <g clip-path="url(#i)">
          <path fill="#202020" d="M250.348 129.586c-.086-.043.12-.48-.356.086-.18.226-.355.445-.515.672l-.247.332-.242.328c-.32.426-.625.86-.922 1.289-.148.215-.308.422-.464.633-.16.215-.32.422-.489.637-.168.21-.34.421-.515.636-.18.211-.375.418-.578.63l-.227.023-.863 1.05c-.29.356-.606.7-.907 1.051-.156.176-.308.352-.46.531-.157.176-.317.348-.477.524l-.969 1.05a71.38 71.38 0 0 1-8.094 6.739c.04-.102.047-.172-.253.023l-.465.332c-.16.114-.332.227-.504.352-.348.242-.723.496-1.106.773l-.293.211-.3.2c-.207.136-.415.277-.622.417l-.636.426c-.11.07-.215.14-.324.211-.11.074-.215.137-.333.207-.269.153-.535.305-.8.453-.219.094-.301.082-.348.07-.203.126-.394.25-.586.36l-.562.328-1.051.617a70.09 70.09 0 0 1-7.04 3.102c-2.433.922-4.91 1.7-7.433 2.336a74.545 74.545 0 0 1-15.949 2.219c-.586-.004-1.172-.012-1.758-.016-.582-.012-1.164-.04-1.742-.055-.578-.015-1.156-.05-1.727-.078-.57-.027-1.136-.05-1.695-.094l-1.285-.062c-.223-.008-.441-.02-.668-.04l-.684-.046-.687-.047c-.23-.016-.465-.027-.695-.05l-1.407-.122c-.468-.031-.933-.09-1.402-.14l-1.371-.153-1.317-.191c-.43-.059-.843-.117-1.242-.195.145-.114-.226-.301-.84-.528l-2.261-.785c-.203-.07-.403-.14-.598-.21l-.55-.216c-.352-.14-.657-.27-.887-.383-.461-.23-.622-.394-.211-.433-.258-.059-.528-.137-.809-.211-.277-.078-.566-.156-.855-.238-.29-.082-.582-.153-.86-.246-.277-.094-.55-.176-.808-.258l-.72-.242-.308-.106-.27-.105c-.331-.133-.534-.239-.562-.286a1.839 1.839 0 0 0-.472-.539 4.91 4.91 0 0 0-.461-.347c-.184-.13-.395-.278-.649-.43-.5-.316-1.156-.66-1.976-1.121l-.657-.348c-.23-.12-.476-.242-.726-.383a145.27 145.27 0 0 0-1.672-.89 50.64 50.64 0 0 0-1.59-.79c-.285-.128-.562-.28-.844-.421l-.82-.414-.39-.195c-.13-.067-.25-.137-.368-.2l-.652-.36a9.43 9.43 0 0 1-.848-.515c-.242-.187-.203-.207-.015-.144.187.066.507.199.828.34.644.273 1.289.55.808.187a70.866 70.866 0 0 0 22.207 7.734c.97.149 1.938.317 2.914.43l.73.102.368.047.367.035 1.469.148c.246.028.492.04.734.059l.739.047.734.05c.246.02.5.024.738.032l1.48.058 1.485.02c.25.004.496.012.742.004l.75-.012.743-.016c.25-.004.496-.004.746-.02l1.488-.07.371-.019.375-.027.742-.059c.996-.066 1.988-.191 2.985-.297l1.492-.207c.246-.035.496-.066.742-.105l.738-.125c.344-.043.801-.106 1.371-.196.57-.09 1.239-.218 2.004-.359.383-.082.785-.172 1.211-.266l.649-.14c.222-.051.449-.113.68-.168.464-.117.945-.242 1.44-.367.497-.145 1.008-.293 1.536-.45a65.414 65.414 0 0 0 6.82-2.457 64.199 64.199 0 0 0 7.274-3.648 67.548 67.548 0 0 0 12.89-9.75 71.733 71.733 0 0 0 4.57-4.824c.32-.367.61-.73.895-1.07.281-.34.555-.665.797-.981l.684-.887c.214-.277.414-.535.585-.777.176-.246.348-.461.524-.692a85.672 85.672 0 0 0 4.527-6.902 115.867 115.867 0 0 0 3.625-6.746l.692-1.363c.117-.227.222-.461.332-.692.11-.23.218-.465.328-.699l.332-.695c.11-.235.207-.473.312-.707.207-.473.418-.942.621-1.418l-.332 1.34c-.105.43-.195.836-.3 1.21l.14-.367.133-.37.254-.727c.164-.48.336-.934.465-1.36.133-.421.273-.796.39-1.12.059-.165.11-.31.164-.442.055-.133.09-.242.13-.336.738-2.117.949-2.574 1.023-2.254a4.35 4.35 0 0 1-.004.93c-.04.418-.086.91-.117 1.355-.094.63.035.551.14.559.106.008.188.105-.03 1.074l.284-.918.219-.8.223-.798.125-.441c.039-.152.078-.316.12-.492.048-.031.005.222-.093.597s-.254.88-.394 1.36l-.204.68c-.066.207-.12.39-.156.527-.07.277-.07.383.067.164l.14-.504c.05-.164.106-.34.152-.512.098-.351.208-.699.317-1.054.226-.704.418-1.422.59-2.118.023.133-.04.5-.137.977l-.078.375c-.027.129-.067.266-.102.402l-.226.836-.215.809-.188.672c-.101.383-.144.62-.078.582.07-.18.164-.52.274-.926.11-.406.21-.887.316-1.352.055-.23.113-.453.164-.668l.082-.304.07-.278c.09-.343.18-.586.262-.636.032-.02-.039.316-.14.75-.098.433-.254.953-.348 1.297.656-2.118 1.098-3.786 1.34-4.415.12-.308.195-.363.2-.082-.005.227-.02.45-.048.676-.035.313-.082.723-.176 1.223.047-.176.09-.352.125-.543l.114-.586.242-1.25c.043-.215.078-.426.11-.64l.105-.633c.07-.415.144-.813.222-1.18l.004.008c-.062.37-.14.875-.215 1.37l-.117.72c-.035.226-.082.433-.117.601.043-.207.094-.414.129-.625l.113-.629.223-1.254c.012.137.016.297.023.457-.039.317-.086.633-.132.953-.047.32-.094.641-.172.97.03-.141.062-.278.086-.419l.078-.418.152-.84c.004.43 0 .926-.027 1.47-.07.503-.13 1.003-.188 1.487-.031.243-.054.48-.09.707l-.101.672c-.07.434-.133.844-.2 1.211-.03.18-.066.352-.105.512-.039.156-.074.3-.11.438a71.764 71.764 0 0 1-11.495 24.023Zm0 0"/>
        </g>
      </g>
    </g>
  </g>
</svg>
